<svg xmlns="http://www.w3.org/2000/svg" viewBox="0 0 64 64">
  <defs>
    <linearGradient id="bg" x1="6" y1="6" x2="58" y2="58" gradientUnits="userSpaceOnUse">
      <stop offset="0" stop-color="#0d1428"/>
      <stop offset="1" stop-color="#10192f"/>
    </linearGradient>
    <linearGradient id="glow" x1="14" y1="14" x2="50" y2="50" gradientUnits="userSpaceOnUse">
      <stop offset="0" stop-color="#4ecdc4"/>
      <stop offset="0.5" stop-color="#45b7d1"/>
      <stop offset="1" stop-color="#ff6b6b"/>
    </linearGradient>
  </defs>
  <rect x="6" y="6" width="52" height="52" rx="14" fill="url(#bg)" stroke="url(#glow)" stroke-width="3"/>
  <path d="M24 24c-1.7 0-3 1.3-3 3v10c0 1.7 1.3 3 3 3h16c1.7 0 3-1.3 3-3V27c0-1.7-1.3-3-3-3H24z" fill="none" stroke="url(#glow)" stroke-width="3" stroke-linejoin="round"/>
  <path d="M30 32l7-4v8l-7-4z" fill="#ff6b6b"/>
  <circle cx="24" cy="30" r="2" fill="#4ecdc4"/>
  <circle cx="24" cy="34" r="2" fill="#45b7d1"/>
  <circle cx="40" cy="30" r="2" fill="#ff6b6b"/>
  <circle cx="40" cy="34" r="2" fill="#ffd166"/>
  <circle cx="32" cy="20" r="4" fill="none" stroke="url(#glow)" stroke-width="3"/>
</svg>
